<svg width="154" height="60" viewBox="0 0 154 60" fill="none" xmlns="http://www.w3.org/2000/svg">
<circle cx="19" cy="30" r="19" fill="#F2545B"/>
<path d="M13.0791 23.7262C13.0791 22.8571 13.0791 22.4225 13.2743 22.183C13.4443 21.9743 13.7041 21.8451 13.9854 21.8295C14.3083 21.8116 14.6977 22.0527 15.4765 22.5348L25.6111 28.8086C26.2545 29.2069 26.5763 29.4061 26.6884 29.6571C26.7864 29.8766 26.7864 30.1233 26.6884 30.3428C26.5763 30.5938 26.2545 30.793 25.6111 31.1914L15.4765 37.4651C14.6977 37.9472 14.3083 38.1883 13.9854 38.1704C13.7041 38.1548 13.4443 38.0257 13.2743 37.817C13.0791 37.5774 13.0791 37.1429 13.0791 36.2737V23.7262Z" stroke="white" stroke-width="2" stroke-linecap="round" stroke-linejoin="round"/>
<path d="M52.2273 47V12.0909H73.1591V15.8409H56.4545V27.6364H71.5909V31.3864H56.4545V47H52.2273ZM78.8937 47V20.8182H82.9164V47H78.8937ZM80.9391 16.4545C80.1551 16.4545 79.4789 16.1875 78.9107 15.6534C78.3539 15.1193 78.0755 14.4773 78.0755 13.7273C78.0755 12.9773 78.3539 12.3352 78.9107 11.8011C79.4789 11.267 80.1551 11 80.9391 11C81.7232 11 82.3937 11.267 82.9505 11.8011C83.5187 12.3352 83.8028 12.9773 83.8028 13.7273C83.8028 14.4773 83.5187 15.1193 82.9505 15.6534C82.3937 16.1875 81.7232 16.4545 80.9391 16.4545ZM99.2107 47.5455C97.0289 47.5455 95.1027 46.9943 93.4323 45.892C91.7618 44.7784 90.455 43.2102 89.5118 41.1875C88.5686 39.1534 88.097 36.75 88.097 33.9773C88.097 31.2273 88.5686 28.8409 89.5118 26.8182C90.455 24.7955 91.7675 23.233 93.4493 22.1307C95.1311 21.0284 97.0743 20.4773 99.2789 20.4773C100.983 20.4773 102.33 20.7614 103.319 21.3295C104.319 21.8864 105.08 22.5227 105.603 23.2386C106.137 23.9432 106.552 24.5227 106.847 24.9773H107.188V12.0909H111.211V47H107.324V42.9773H106.847C106.552 43.4545 106.131 44.0568 105.586 44.7841C105.04 45.5 104.262 46.142 103.25 46.7102C102.239 47.267 100.893 47.5455 99.2107 47.5455ZM99.7561 43.9318C101.37 43.9318 102.733 43.5114 103.847 42.6705C104.961 41.8182 105.807 40.642 106.387 39.142C106.966 37.6307 107.256 35.8864 107.256 33.9091C107.256 31.9545 106.972 30.2443 106.404 28.7784C105.836 27.3011 104.995 26.1534 103.881 25.3352C102.768 24.5057 101.393 24.0909 99.7561 24.0909C98.0516 24.0909 96.6311 24.5284 95.4948 25.4034C94.3698 26.267 93.5232 27.4432 92.955 28.9318C92.3982 30.4091 92.1198 32.0682 92.1198 33.9091C92.1198 35.7727 92.4039 37.4659 92.972 38.9886C93.5516 40.5 94.4039 41.7045 95.5289 42.6023C96.6652 43.4886 98.0743 43.9318 99.7561 43.9318ZM118.177 47V20.8182H122.2V47H118.177ZM120.222 16.4545C119.438 16.4545 118.762 16.1875 118.194 15.6534C117.637 15.1193 117.359 14.4773 117.359 13.7273C117.359 12.9773 117.637 12.3352 118.194 11.8011C118.762 11.267 119.438 11 120.222 11C121.006 11 121.677 11.267 122.234 11.8011C122.802 12.3352 123.086 12.9773 123.086 13.7273C123.086 14.4773 122.802 15.1193 122.234 15.6534C121.677 16.1875 121.006 16.4545 120.222 16.4545ZM139.244 47.5455C136.88 47.5455 134.806 46.983 133.022 45.858C131.249 44.733 129.863 43.1591 128.863 41.1364C127.874 39.1136 127.38 36.75 127.38 34.0455C127.38 31.3182 127.874 28.9375 128.863 26.9034C129.863 24.8693 131.249 23.2898 133.022 22.1648C134.806 21.0398 136.88 20.4773 139.244 20.4773C141.607 20.4773 143.676 21.0398 145.448 22.1648C147.232 23.2898 148.619 24.8693 149.607 26.9034C150.607 28.9375 151.107 31.3182 151.107 34.0455C151.107 36.75 150.607 39.1136 149.607 41.1364C148.619 43.1591 147.232 44.733 145.448 45.858C143.676 46.983 141.607 47.5455 139.244 47.5455ZM139.244 43.9318C141.039 43.9318 142.517 43.4716 143.676 42.5511C144.835 41.6307 145.693 40.4205 146.249 38.9205C146.806 37.4205 147.085 35.7955 147.085 34.0455C147.085 32.2955 146.806 30.6648 146.249 29.1534C145.693 27.642 144.835 26.4205 143.676 25.4886C142.517 24.5568 141.039 24.0909 139.244 24.0909C137.448 24.0909 135.971 24.5568 134.812 25.4886C133.653 26.4205 132.795 27.642 132.238 29.1534C131.681 30.6648 131.403 32.2955 131.403 34.0455C131.403 35.7955 131.681 37.4205 132.238 38.9205C132.795 40.4205 133.653 41.6307 134.812 42.5511C135.971 43.4716 137.448 43.9318 139.244 43.9318Z" fill="white"/>
</svg>
