<svg width="30" height="30" viewBox="0 0 30 30" fill="none" xmlns="http://www.w3.org/2000/svg">
<path d="M12.2449 2.25C12.2449 2.1875 12.2513 2.03125 12.264 1.78125C12.2768 1.53125 12.28 1.32422 12.2736 1.16016C12.2672 0.996094 12.2481 0.8125 12.2162 0.609375C12.1843 0.40625 12.1205 0.253906 12.0249 0.152344C11.9292 0.0507812 11.7985 0 11.6327 0H5.5102C3.99235 0 2.69452 0.660156 1.61671 1.98047C0.538903 3.30078 0 4.89062 0 6.75V23.25C0 25.1094 0.538903 26.6992 1.61671 28.0195C2.69452 29.3398 3.99235 30 5.5102 30H11.6327C11.7985 30 11.942 29.9258 12.0631 29.7773C12.1843 29.6289 12.2449 29.4531 12.2449 29.25C12.2449 29.1875 12.2513 29.0313 12.264 28.7812C12.2768 28.5312 12.28 28.3242 12.2736 28.1602C12.2672 27.9961 12.2481 27.8125 12.2162 27.6094C12.1843 27.4062 12.1205 27.2539 12.0249 27.1523C11.9292 27.0508 11.7985 27 11.6327 27H5.5102C4.66837 27 3.9477 26.6328 3.34821 25.8984C2.74872 25.1641 2.44898 24.2812 2.44898 23.25V6.75C2.44898 5.71875 2.74872 4.83594 3.34821 4.10156C3.9477 3.36719 4.66837 3 5.5102 3H11.4796L11.6996 2.97656L11.9196 2.90625L12.0727 2.77734L12.2066 2.56641L12.2449 2.25ZM30 15C30 14.5937 29.8788 14.2422 29.6365 13.9453L19.2283 1.19531C18.986 0.898437 18.699 0.75 18.3673 0.75C18.0357 0.75 17.7487 0.898437 17.5064 1.19531C17.264 1.49219 17.1429 1.84375 17.1429 2.25V9H8.57143C8.2398 9 7.95281 9.14844 7.71046 9.44531C7.46811 9.74219 7.34694 10.0937 7.34694 10.5V19.5C7.34694 19.9063 7.46811 20.2578 7.71046 20.5547C7.95281 20.8516 8.2398 21 8.57143 21H17.1429V27.75C17.1429 28.1563 17.264 28.5078 17.5064 28.8047C17.7487 29.1016 18.0357 29.25 18.3673 29.25C18.699 29.25 18.986 29.1016 19.2283 28.8047L29.6365 16.0547C29.8788 15.7578 30 15.4063 30 15Z" fill="#A6A6A6"/>
</svg>
