<svg width="1232" height="158" viewBox="0 0 1232 158" fill="none" xmlns="http://www.w3.org/2000/svg">
<path d="M2.5 3.5002C2.5 3.5002 21 -11.4981 50 84.0019C79 179.502 154.056 183.501 170.556 69.5033C187.056 -44.4948 288.556 179.004 301.056 69.5033C313.556 -39.9976 429 84.0019 429 84.0019C429 84.0019 530 187.501 569.5 84.0019C609 -19.4972 722.5 84.0017 722.5 84.0017C722.5 84.0017 900.5 206.003 888 84.0017C875.5 -37.9992 1006 84.0019 1006 84.0019C1006 84.0019 1157 204.004 1126 84.0019C1095 -36.0001 1229.5 84.0019 1229.5 84.0019" stroke="#F2545B" stroke-width="5"/>
</svg>
