<svg width="19" height="18" viewBox="0 0 19 18" fill="none" xmlns="http://www.w3.org/2000/svg">
<g clip-path="url(#clip0_352_42192)">
<path d="M9.55762 1.5C11.4336 3.55376 12.4997 6.21903 12.5576 9C12.4997 11.781 11.4336 14.4462 9.55762 16.5M9.55762 1.5C7.68166 3.55376 6.61555 6.21903 6.55762 9C6.61555 11.781 7.68166 14.4462 9.55762 16.5M9.55762 1.5C5.41548 1.5 2.05762 4.85786 2.05762 9C2.05762 13.1421 5.41548 16.5 9.55762 16.5M9.55762 1.5C13.6998 1.5 17.0576 4.85786 17.0576 9C17.0576 13.1421 13.6998 16.5 9.55762 16.5M2.43263 6.75H16.6826M2.43262 11.25H16.6826" stroke="black" stroke-width="2" stroke-linecap="round" stroke-linejoin="round"/>
</g>
<defs>
<clipPath id="clip0_352_42192">
<rect width="18" height="18" fill="white" transform="translate(0.557617)"/>
</clipPath>
</defs>
</svg>
